<?xml version="1.0" encoding="iso-8859-1"?>
<!-- Generator: Adobe Illustrator 19.0.0, SVG Export Plug-In . SVG Version: 6.00 Build 0)  -->
<svg version="1.1" id="Layer_1" xmlns="http://www.w3.org/2000/svg" xmlns:xlink="http://www.w3.org/1999/xlink" x="0px" y="0px"
	 viewBox="0 0 512 512" style="enable-background:new 0 0 512 512;" xml:space="preserve">
<path style="fill:#4288BC;" d="M406.754,356.887v117.135H131.536V356.887c0-46.115,29.088-85.417,69.917-100.598
	c0.013-0.013,0.013,0,0.013,0c18.422,22.168,116.935,22.168,135.371-0.013C377.653,271.483,406.754,310.758,406.754,356.887z"/>
<path style="fill:#3679A3;" d="M215.439,265.094c-19.392,18.807-32.355,52.876-32.355,91.792v117.135h-51.548V356.887
	c0-46.115,29.088-85.417,69.917-100.598h0.013C204.362,259.767,209.223,262.703,215.439,265.094z"/>
<path style="fill:#EFC197;" d="M336.837,256.275c-18.436,22.181-41.998,37.495-67.685,37.495s-49.263-15.314-67.685-37.482
	c-23.881-28.729-39.129-68.974-39.129-102.272c0-58.986,47.829-106.801,106.814-106.801c58.972,0,106.801,47.815,106.801,106.801
	C375.953,187.314,360.719,227.546,336.837,256.275z"/>
<path style="fill:#D8AB87;" d="M269.152,293.769c-25.688,0-49.263-15.314-67.685-37.482
	c-23.881-28.729-39.129-68.974-39.129-102.272c0-58.986,47.829-106.801,106.814-106.801c-30.562,0-55.333,47.815-55.333,106.801
	c0,33.298,7.903,73.543,20.268,102.272C243.637,278.455,255.843,293.769,269.152,293.769z"/>
<rect x="182.496" y="356.491" style="fill:#CCCCCC;" width="173.318" height="117.546"/>
<path d="M352.299,252.986c20.587-29.158,33.484-66.442,33.484-98.25c0-64.384-52.38-116.763-116.763-116.763
	c-20.42,0-40.521,5.351-58.13,15.475c-4.77,2.741-6.413,8.831-3.671,13.601c2.741,4.77,8.831,6.413,13.601,3.671
	c14.592-8.389,31.259-12.824,48.199-12.824c53.398,0,96.84,43.443,96.84,96.84c0,31.348-14.451,68.987-36.815,95.891
	c-18.17,21.861-39.486,33.901-60.024,33.901c-20.547,0-41.864-12.035-60.024-33.888c-22.372-26.913-36.829-64.559-36.829-95.905
	c0-25.867,10.074-50.185,28.369-68.476c3.89-3.89,3.892-10.197,0.001-14.087c-3.889-3.89-10.197-3.892-14.087-0.001
	c-22.058,22.054-34.205,51.376-34.205,82.565c0,31.804,12.9,69.089,33.492,98.255c-38.928,19.778-64.292,60.298-64.292,104.615
	v117.135c0,5.501,4.46,9.962,9.962,9.962h275.218c5.501,0,9.962-4.46,9.962-9.962V357.608
	C416.584,313.316,391.223,272.791,352.299,252.986z M396.661,464.78h-31.019V357.205c0-5.501-4.46-9.962-9.962-9.962h-21.977
	c-5.501,0-9.962,4.46-9.962,9.962s4.46,9.962,9.962,9.962h12.015v97.613h-153.4v-97.613h112.164c5.501,0,9.962-4.46,9.962-9.962
	s-4.46-9.962-9.962-9.962H182.358c-5.501,0-9.962,4.46-9.962,9.962V464.78h-31.03V357.607c0-38.211,22.718-73.017,57.173-88.664
	c21.031,22.954,45.834,35.51,70.481,35.51c24.637,0,49.439-12.56,70.476-35.516c34.451,15.677,57.166,50.485,57.166,88.671V464.78
	H396.661z"/>
<path d="M360.591,53.791h141.447c5.501,0,9.962-4.46,9.962-9.962s-4.46-9.962-9.962-9.962H360.591c-5.501,0-9.962,4.46-9.962,9.962
	C350.629,49.331,355.09,53.791,360.591,53.791z"/>
<path d="M147.424,53.791h33.868c5.501,0,9.962-4.46,9.962-9.962s-4.46-9.962-9.962-9.962h-33.868c-5.501,0-9.962,4.46-9.962,9.962
	C137.463,49.331,141.923,53.791,147.424,53.791z"/>
<path d="M502.038,450.24h-63.751c-5.501,0-9.962,4.46-9.962,9.962s4.46,9.962,9.962,9.962h63.751c5.501,0,9.962-4.46,9.962-9.962
	S507.54,450.24,502.038,450.24z"/>
<path d="M99.613,450.24h-79.69v-63.352h77.696c5.501,0,9.962-4.46,9.962-9.962s-4.46-9.962-9.962-9.962H19.923V220.34h119.532
	c5.501,0,9.962-4.46,9.962-9.962s-4.46-9.962-9.962-9.962H19.923v-63.352h109.572c5.501,0,9.962-4.46,9.962-9.962
	c0-5.501-4.46-9.962-9.962-9.962H19.923V53.791h91.642c5.501,0,9.962-4.46,9.962-9.962s-4.46-9.962-9.962-9.962H19.923V17.931
	c0-5.501-4.46-9.962-9.962-9.962S0,12.429,0,17.931v476.138c0,5.501,4.46,9.962,9.962,9.962s9.962-4.46,9.962-9.962v-23.906h79.69
	c5.501,0,9.962-4.46,9.962-9.962S105.114,450.24,99.613,450.24z"/>
<path d="M502.038,283.69h-73.713c-5.501,0-9.962,4.46-9.962,9.962s4.46,9.962,9.962,9.962h73.713c5.501,0,9.962-4.46,9.962-9.962
	S507.54,283.69,502.038,283.69z"/>
<path d="M109.573,283.69H39.845c-5.501,0-9.962,4.46-9.962,9.962s4.46,9.962,9.962,9.962h69.728c5.501,0,9.962-4.46,9.962-9.962
	S115.075,283.69,109.573,283.69z"/>
<path d="M502.038,366.965h-57.774c-5.501,0-9.962,4.46-9.962,9.962s4.46,9.962,9.962,9.962h57.774c5.501,0,9.962-4.46,9.962-9.962
	S507.54,366.965,502.038,366.965z"/>
<path d="M502.038,200.417h-97.619c-5.501,0-9.962,4.46-9.962,9.962s4.46,9.962,9.962,9.962h97.619c5.501,0,9.962-4.46,9.962-9.962
	S507.54,200.417,502.038,200.417z"/>
<path d="M502.038,117.143h-89.65c-5.501,0-9.962,4.46-9.962,9.962s4.46,9.962,9.962,9.962h89.65c5.501,0,9.962-4.46,9.962-9.962
	S507.54,117.143,502.038,117.143z"/>
<path d="M310.856,388.085h-83.673c-5.501,0-9.962,4.46-9.962,9.962c0,5.501,4.46,9.962,9.962,9.962h83.673
	c5.501,0,9.962-4.46,9.962-9.962C320.818,392.545,316.358,388.085,310.856,388.085z"/>
<path d="M310.856,423.944h-83.673c-5.501,0-9.962,4.46-9.962,9.962s4.46,9.962,9.962,9.962h83.673c5.501,0,9.962-4.46,9.962-9.962
	S316.358,423.944,310.856,423.944z"/>
<g>
</g>
<g>
</g>
<g>
</g>
<g>
</g>
<g>
</g>
<g>
</g>
<g>
</g>
<g>
</g>
<g>
</g>
<g>
</g>
<g>
</g>
<g>
</g>
<g>
</g>
<g>
</g>
<g>
</g>
</svg>
