<svg id="Capa_1" enable-background="new 0 0 512 512" height="512" viewBox="0 0 512 512" width="512" xmlns="http://www.w3.org/2000/svg"><g><g><path d="m314.748 377.813-.748.757c-.16.16-.25.25-.26.26-15.995 15.725-36.975 24.842-57.8 24.867s-41.495-9.042-57.52-24.717c-.03-.03 5.699-34.622 5.699-34.622l.731-46.858h102.3l.992 30.372 2.238 5.598 3.96 44.09z" fill="#f2d1a5"/><path d="m441.28 460.95v19.55h-368.61v-19.55c0-18.99 10.163-34.42 27.743-41.62l96.939-40.183c.75.7 1.56-.426 1.59-.396 32.05 31.35 82.347 31.33 114.337-.12l.26-.26.801-.81 97.88 40.09c17.58 7.199 29.06 24.309 29.06 43.299z" fill="#7dc3ee"/><path d="m310.38 333.47c-17.78 14.73-36.46 22.69-54.38 22.69-11.78 0-23.89-3.45-35.86-9.99-2.52-1.38-5.63.29-5.89 3.15l-3.259 36.291c-.093 1.032-.752 1.926-1.711 2.319-3.81-2.62-7.44-5.61-10.86-8.95-.03-.03-.318-.293-1.068-.993l.286-.436 7.212-80.05h102.3z" fill="#f2bb88"/><path d="m209.788 387.7-104.708 42.91c-12.37 5.06-20.36 16.97-20.36 30.34v19.55h-14v-19.55c0-18.99 11.48-36.1 29.06-43.3l97.858-40.1c.75.7 1.26 1.17 1.29 1.2 3.42 3.34 7.05 6.33 10.86 8.95z" fill="#64acdc"/><g><g><g><path d="m61.881 473.165c-.242 0-1.522 1.351-1.761 1.362 0 0-2.42.882-3.661 1.29-5.926 1.947-9.55 6.743-9.55 13.321 0 8.197 6.645 14.842 14.842 14.842l388.906-.323c6.542 0 11.503-3.62 13.479-9.495.311-.926 1.751-2.651 1.751-2.651.075-.604.113-1.219.113-1.843v-.316c0-8.197-6.645-14.842-14.842-14.842l-5.938-2.886z" fill="#f9f8f9"/><path d="m465.887 491.511c-.9 7.33-7.147 12.999-14.727 12.999h-39.06l-9.816-3.537-12.074 3.537h-31.3l-9.965-3.537-11.935 3.537h-31.3l-9.692-3.537-11.588 3.537h-31.9l-11.227-3.537-10.673 3.537h-31.3l-8.669-3.537-12.601 3.537h-31.92l-11.172-3.537-10.728 3.537h-31.29l-11.115-3.537-10.785 3.537h-10.21c-8.2 0-14.84-6.64-14.84-14.84v-.32c0-7.96 6.25-14.453 14.12-14.823-.08.6-.12 1.203-.12 1.823v.32c0 8.2 6.64 14.84 14.84 14.84z" fill="#e8e8e8"/></g></g></g><g fill="#f2bb88"><path d="m162.854 254.895-13.627-1.016c-19.016-1.418-33.723-17.258-33.727-36.327v-.052-18l35.339-8.443z"/><path d="m348.146 254.895 14.571-1.064c19.04-1.39 33.778-17.24 33.783-36.331v-18l-36.339-8.443z"/></g><path d="m371.719 176.561c0-63.91-34.416-124.719-115.719-124.719-87.288 0-115.719 60.809-115.719 124.719s58.219 165.597 115.719 165.597 115.719-101.688 115.719-165.597z" fill="#f2d1a5"/><path d="m256.124 7.794c-32.85 0-62.839 14.561-85.803 36.344-11.033 10.466-19.381 22.486-26.092 36.771-9.44 20.094-16.404 41.223-16.404 63.592l7.012 4.555 13.191-4.555s11.023-79.273 85.472-85c13-1 4 30 35 37 90.228 20.374 97.022 48 97.022 48l10.56 6.193 9.918-6.194c0-22.529-6.93-44.952-16.264-64.936-19.475-41.696-60.293-69.008-105.831-71.823 0 0-5.168.053-7.781.053z" fill="#e8e8e8"/><path d="m264.1 7.753c-45.45 2.88-86.09 30.217-105.63 71.807-9.44 20.09-16.47 42.57-16.47 64.94l-8.119 4.555-7.881-4.555c0-22.37 7.03-44.85 16.47-64.94 20.68-44.02 65-72.06 113.63-72.06 2.68 0 5.35.083 8 .253z" fill="#dcdbdd"/><path d="m123.477 181.5c-10.217 0-17.422 8.283-17.422 18.5h-.206c0 10.217 7.287 17.725 17.505 17.725l7.266.103 8.216.672h250.164c10.217 0 18.5-8.283 18.5-18.5 0-4.121-1.348-7.928-3.626-11.003 0 0-2.005-1.247-2.745-1.96-3.327-3.208-7.142-5.537-12.128-5.537 4.898 0 8.957-2.269 12.266-5.376.81-.76 2.608-2.121 2.608-2.121 2.279-3.075 3.626-6.882 3.626-11.003 0-10.217-8.283-18.5-18.5-18.5h-250.483l-15.495.413c-10.217 0-17.587 7.87-17.587 18.087 0 10.217 7.824 18.5 18.041 18.5z" fill="#857e87"/><path d="m121.5 200c0 5.11 2.07 9.74 5.42 13.08 3.34 3.35 7.97 5.42 13.08 5.42h-17c-5.11 0-9.74-2.07-13.08-5.42-3.35-3.34-5.42-7.97-5.42-13.08 0-4.122 1.347-7.929 3.625-11.004 0 0 3.022-2.309 4.398-3.363 3.116-2.387 6.247-4.133 10.477-4.133-5.11 0-9.229-2.246-12.569-5.596-.648-.646-2.306-1.901-2.306-1.901-2.279-3.072-3.626-6.881-3.626-11.003 0-10.22 8.28-18.5 18.5-18.5h17c-10.22 0-18.5 8.28-18.5 18.5 0 5.11 2.07 9.74 5.42 13.08 3.34 3.35 7.97 5.42 13.08 5.42-10.219 0-18.499 8.28-18.499 18.5z" fill="#6f6571"/><g><path d="m451.158 444.5h-10.148l-15.055 3.344-6.845-3.344h-31.29l-14.626 3.344-7.274-3.344h-31.29l-13.042 3.344-8.859-3.344h-31.3l-16.897 3.344-4.993-3.344h-31.29l-14.579 3.344-7.331-3.344h-31.28l-15.141 3.344-6.759-3.344h-31.29l-15.126 3.344-6.783-3.344h-39.118c-.242 0-.483.006-.722.017 0 0-2.42.882-3.661 1.29-5.926 1.947-9.55 6.743-9.55 13.321 0 8.197 6.645 14.842 14.842 14.842l388.906-.323c6.542 0 11.503-3.62 13.479-9.495.311-.926 1.751-2.651 1.751-2.651.075-.604.113-1.219.113-1.843v-.316c0-8.197-6.645-14.842-14.842-14.842z" fill="#f9f8f9"/><path d="m465.887 461.501c-.9 7.33-7.147 12.999-14.727 12.999h-42.06l-6.816-3.537-15.074 3.537h-31.3l-6.965-3.537-14.935 3.537h-31.3l-6.692-3.537-14.588 3.537h-31.9l-8.227-3.537-13.673 3.537h-31.3l-5.669-3.537-15.601 3.537h-31.92l-8.172-3.537-13.728 3.537h-31.29l-8.115-3.537-13.785 3.537h-7.21c-8.2 0-14.84-6.64-14.84-14.84v-.32c0-7.96 6.25-14.453 14.12-14.823-.08.6-.12 1.203-.12 1.823v.32c0 8.2 6.64 14.84 14.84 14.84z" fill="#e8e8e8"/></g></g><g><path d="m241.115 254.423c4.73 1.971 9.807 2.957 14.885 2.957s10.155-.985 14.885-2.957c3.823-1.593 5.631-5.984 4.038-9.808s-5.983-5.633-9.808-4.038c-5.793 2.413-12.438 2.413-18.23 0-3.822-1.594-8.215.214-9.808 4.038s.215 8.215 4.038 9.808z"/><path d="m239.911 294.412c10.225-4.305 21.954-4.305 32.179 0 .951.4 1.937.59 2.907.59 2.927 0 5.708-1.725 6.916-4.591 1.607-3.818-.184-8.215-4.001-9.823-13.925-5.863-29.896-5.863-43.821 0-3.817 1.607-5.609 6.005-4.001 9.823 1.605 3.816 6.002 5.61 9.821 4.001z"/><path d="m473.5 459.342c0-12.319-10.022-22.342-22.342-22.342h-7.963c-5.829-11.822-15.857-21.263-28.13-26.29l-17.34-7.102c-3.834-1.569-8.213.265-9.783 4.098s.265 8.213 4.098 9.783l17.34 7.102c6.446 2.64 12.031 6.967 16.228 12.409h-339.215c4.197-5.442 9.783-9.77 16.227-12.409l92.887-38.043c6.709 6.117 14.239 11.146 22.431 14.974 1.027.479 2.107.707 3.17.707 2.822 0 5.526-1.601 6.8-4.327 1.753-3.753.133-8.216-3.62-9.97-6.907-3.227-13.248-7.488-18.894-12.676l3.938-43.816c13.382 10.377 29.249 18.218 46.668 18.218s33.286-7.841 46.668-18.218l3.937 43.803c-14.108 12.974-32.29 19.969-51.592 19.706-4.174-.053-7.544 3.259-7.598 7.401s3.26 7.543 7.401 7.598c21.99.408 45.089-8.062 61.665-23.406l43.558 17.84c.931.381 1.893.562 2.84.562 2.954 0 5.754-1.757 6.943-4.659 1.57-3.833-.265-8.213-4.098-9.783l-44.321-18.152-4.796-53.36c15.349-15.6 29.015-35.676 39.668-57.169l6.986-.51c21.547-1.573 38.685-18.794 40.559-39.967 6.751-4.702 11.18-12.514 11.18-21.344 0-7.231-2.967-13.783-7.749-18.5 4.781-4.717 7.749-11.269 7.749-18.5 0-12.88-9.416-23.597-21.725-25.642-1.132-19.087-6.743-39.556-16.743-60.967-6.191-13.254-14.481-25.306-24.641-35.821-2.879-2.979-7.626-3.061-10.605-.182-2.979 2.878-3.061 7.626-.182 10.605 9.003 9.318 16.35 19.999 21.837 31.746 8.975 19.214 14.104 37.428 15.291 54.262h-8.112c-6.558-10.271-28.397-31.655-99.968-47.816-14.326-3.235-17.44-12.395-20.451-21.253-2.27-6.675-5.704-16.772-16.776-15.909-32.997 2.539-59.465 19.25-76.546 48.327-8.557 14.567-12.697 28.724-14.521 36.651h-8.082c1.21-16.711 6.405-34.92 15.485-54.251 19.335-41.157 61.273-67.75 106.843-67.75 20.735 0 41.176 5.464 59.114 15.8 3.587 2.068 8.174.836 10.243-2.753 2.068-3.589.835-8.175-2.753-10.243-20.212-11.647-43.244-17.804-66.604-17.804-51.357 0-98.625 29.978-120.419 76.371-10.12 21.543-15.802 42.017-16.955 60.986-12.311 2.043-21.73 12.761-21.73 25.643 0 7.231 2.967 13.783 7.749 18.5-4.782 4.717-7.749 11.269-7.749 18.5 0 8.829 4.427 16.639 11.174 21.34 1.848 21.166 18.967 38.413 40.496 40.018l7.086.528c10.799 21.473 22.939 39.868 39.635 57.103l-4.796 53.361-93.661 38.36c-12.269 5.025-22.299 14.469-28.128 26.29h-7.965c-12.319 0-22.341 10.022-22.341 22.342v.316c0 5.693 2.143 10.892 5.661 14.842-3.518 3.95-5.661 9.149-5.661 14.842v.316c0 12.32 10.022 22.342 22.342 22.342h390.316c12.319 0 22.342-10.022 22.342-22.342v-.316c0-5.693-2.143-10.892-5.661-14.842 3.518-3.95 5.661-9.149 5.661-14.842zm-110.152-213.106c2.774-6.692 5.257-13.462 7.381-20.236h16.975c-3.335 10.729-12.789 18.913-24.356 20.236zm-240.348-57.236h55c4.142 0 7.5-3.358 7.5-7.5s-3.358-7.5-7.5-7.5h-55c-6.065 0-11-4.935-11-11s4.935-11 11-11h51.851c4.142 0 7.5-3.358 7.5-7.5s-3.358-7.5-7.5-7.5h-17.54c1.896-7.175 5.509-18.001 12.002-29.054 14.55-24.771 36.067-38.529 63.985-40.905.68 1.245 1.542 3.779 2.201 5.718 3.302 9.713 8.83 25.971 31.349 31.056 49.608 11.202 72.637 24.425 83.116 33.184h-140.113c-4.142 0-7.5 3.358-7.5 7.5s3.358 7.5 7.5 7.5h179.149c6.065 0 11 4.935 11 11s-4.935 11-11 11h-55c-4.142 0-7.5 3.358-7.5 7.5s3.358 7.5 7.5 7.5h55c6.065 0 11 4.935 11 11s-4.935 11-11 11c-33.449 0-232.985 0-266 0-6.065 0-11-4.935-11-11s4.935-10.999 11-10.999zm1.289 37h16.981c2.129 6.792 4.621 13.58 7.403 20.29-11.581-1.317-21.052-9.52-24.384-20.29zm32.759 0h197.904c-18.321 54.148-60.462 108.659-98.952 108.659s-80.631-54.511-98.952-108.659zm301.452 233.342v.316c0 4.048-3.293 7.342-7.342 7.342h-34.08l15.957-15h18.123c4.049 0 7.342 3.293 7.342 7.342zm-91.613 37.658 15.957-15h31.291l-15.957 15zm-53.192 0 15.957-15h31.291l-15.957 15zm-53.191 0 15.957-15h31.291l-15.957 15zm-53.192 0 15.957-15h31.291l-15.957 15zm-53.191 0 15.957-15h31.291l-15.957 15zm-53.192 0 15.957-15h31.291l-15.957 15zm44.248-45-15.957 15h-31.291l15.957-15zm53.192 0-15.957 15h-31.291l15.957-15zm53.191 0-15.957 15h-31.291l15.957-15zm53.192 0-15.957 15h-31.291l15.957-15zm53.191 0-15.957 15h-31.291l15.957-15zm53.192 0-15.957 15h-31.291l15.957-15zm-357.635 7.342c0-4.048 3.293-7.342 7.342-7.342h31.144l-15.957 15h-15.187c-4.048 0-7.342-3.293-7.342-7.342zm0 30.316v-.316c0-4.048 3.293-7.342 7.342-7.342h34.144l-15.957 15h-18.187c-4.049 0-7.342-3.293-7.342-7.342zm405 0c0 4.048-3.293 7.342-7.342 7.342h-31.08l15.957-15h15.123c4.048 0 7.342 3.293 7.342 7.342z"/></g></g></svg>