<?xml version="1.0" encoding="iso-8859-1"?>
<!-- Generator: Adobe Illustrator 18.0.0, SVG Export Plug-In . SVG Version: 6.00 Build 0)  -->
<!DOCTYPE svg PUBLIC "-//W3C//DTD SVG 1.1//EN" "http://www.w3.org/Graphics/SVG/1.1/DTD/svg11.dtd">
<svg version="1.1" id="Capa_1" xmlns="http://www.w3.org/2000/svg" xmlns:xlink="http://www.w3.org/1999/xlink" x="0px" y="0px"
	 viewBox="0 0 56.195 56.195" style="enable-background:new 0 0 56.195 56.195;" xml:space="preserve">
<g>
	<path d="M25.654,47.632l-1.436-2.192l1.543-2.354c2.624-4.008,5.866-6.878,9.461-8.479c0.266-0.119,0.536-0.219,0.805-0.323
		c0.286-0.111,0.571-0.228,0.862-0.323c1.666-0.547,3.393-0.839,5.164-0.839c4.763,0,9.231,2.026,12.946,5.792V2.599
		c0-0.321-0.154-0.623-0.416-0.812s-0.597-0.241-0.901-0.137l-17.73,5.91L19.229,3.625c-0.076-0.018-0.152-0.026-0.228-0.026
		c-0.048,0-0.094,0.017-0.142,0.024c-0.026,0.003-0.051-0.006-0.076-0.001l-18,4C0.326,7.725,0,8.13,0,8.599v43
		c0,0.304,0.138,0.59,0.375,0.78c0.179,0.144,0.4,0.22,0.625,0.22c0.072,0,0.145-0.008,0.217-0.023l17.807-3.957l8.453,1.492
		C26.842,49.338,26.232,48.515,25.654,47.632z M22.545,46.535l0.499,0.761L20,46.759V5.861l15,3.529v23.127
		c-4.209,1.713-7.959,4.961-10.911,9.471l-1.543,2.354C22.109,45.009,22.109,45.869,22.545,46.535z"/>
	<path d="M55.836,44.73c-3.512-5.364-8.2-8.391-13.251-8.59c-0.27-0.032-0.543-0.053-0.821-0.053c-0.491,0-0.969,0.053-1.431,0.151
		c-4.595,0.594-8.827,3.552-12.062,8.492l-0.466,0.711l0.359,0.548c3.635,5.552,8.529,8.609,13.783,8.609
		c5.253,0,10.148-3.058,13.783-8.609l0.466-0.711L55.836,44.73z M46.673,42.995c0,2.707-2.202,4.909-4.909,4.909
		s-4.909-2.202-4.909-4.909c0-2.343,1.652-4.302,3.852-4.788c0.446-0.053,0.895-0.087,1.348-0.087c0.025,0,0.05,0.002,0.075,0.003
		C44.663,38.313,46.673,40.413,46.673,42.995z M41.947,52.598c-4.387,0-8.538-2.537-11.744-7.161
		c1.559-2.286,3.348-4.069,5.28-5.304c-0.4,0.874-0.629,1.841-0.629,2.863c0,3.81,3.1,6.909,6.909,6.909s6.909-3.1,6.909-6.909
		c0-1.216-0.318-2.357-0.872-3.351c2.204,1.207,4.242,3.107,5.996,5.637C50.577,50.004,46.383,52.598,41.947,52.598z"/>
</g>
<g>
</g>
<g>
</g>
<g>
</g>
<g>
</g>
<g>
</g>
<g>
</g>
<g>
</g>
<g>
</g>
<g>
</g>
<g>
</g>
<g>
</g>
<g>
</g>
<g>
</g>
<g>
</g>
<g>
</g>
</svg>
