<svg id="Capa_1" enable-background="new 0 0 507.75 507.75" height="512" viewBox="0 0 507.75 507.75" width="512" xmlns="http://www.w3.org/2000/svg"><g><g><path d="m389.81 388.547 83.76 28.71v-208.08l-83.76 28.71z" fill="#f2fbff"/><path d="m414.81 237.887v150.66l58.76 20.14v8.57l-83.76-28.71v-150.66l83.76-28.71v8.57z" fill="#dff6fd"/><path d="m51.058 348.703-37.184 27.359c-2.641 1.943-6.371.057-6.371-3.222v-119.245c0-3.279 3.729-5.165 6.371-3.222l37.184 27.359z" fill="#554e56"/><path d="m349.354 454.159h-229.096c-4.418 0-8-3.582-8-8v-46.962h245.096v46.962c0 4.418-3.582 8-8 8z" fill="#678d98"/><path d="m43.294 273.512h56.703v79.412h-56.703z" fill="#f2fbff"/><path d="m145.26 454.157h-25c-4.42 0-8-3.58-8-8v-46.96h25v46.96c0 4.42 3.58 8 8 8z" fill="#537983"/><path d="m377.806 417.843h-286c-6.627 0-12-5.373-12-12v-185.25c0-6.627 5.373-12 12-12h286c6.627 0 12 5.373 12 12v185.25c0 6.627-5.373 12-12 12z" fill="#685e68"/><path d="m116.81 417.847h-25c-6.63 0-12-5.38-12-12v-185.25c0-6.63 5.37-12 12-12h25c-6.63 0-12 5.37-12 12v185.25c0 6.62 5.37 12 12 12z" fill="#554e56"/><path d="m492.253 434.622h-27.66c-4.418 0-8-3.582-8-8v-226.809c0-4.418 3.582-8 8-8h27.66c4.418 0 8 3.582 8 8v226.809c0 4.418-3.582 8-8 8z" fill="#685e68"/><path d="m489.59 434.617h-25c-4.42 0-8-3.58-8-8v-226.8c0-4.42 3.58-8 8-8h25c-4.42 0-8 3.58-8 8v226.8c0 4.42 3.58 8 8 8z" fill="#554e56"/><circle cx="157.306" cy="131.093" fill="#685e68" r="77.5"/><path d="m169.81 207.587c-4.07.67-8.24 1.01-12.5 1.01-42.81 0-77.5-34.7-77.5-77.5 0-42.81 34.69-77.5 77.5-77.5 4.26 0 8.43.34 12.5 1.01-36.87 5.97-65 37.94-65 76.49 0 38.54 28.13 70.52 65 76.49z" fill="#554e56"/><circle cx="157.306" cy="131.093" fill="#678d98" r="35"/><circle cx="312.306" cy="131.093" fill="#685e68" r="77.5"/><path d="m324.81 207.587c-4.07.67-8.24 1.01-12.5 1.01-42.81 0-77.5-34.7-77.5-77.5 0-42.81 34.69-77.5 77.5-77.5 4.26 0 8.43.34 12.5 1.01-36.87 5.97-65 37.94-65 76.49 0 38.54 28.13 70.52 65 76.49z" fill="#554e56"/><circle cx="312.306" cy="131.093" fill="#678d98" r="35"/><path d="m169.81 163.797c-3.88 1.49-8.1 2.3-12.5 2.3-19.33 0-35-15.67-35-35s15.67-35 35-35c4.4 0 8.62.81 12.5 2.3-13.16 5.03-22.5 17.78-22.5 32.7s9.34 27.67 22.5 32.7z" fill="#537983"/><path d="m324.81 163.797c-3.88 1.49-8.1 2.3-12.5 2.3-19.33 0-35-15.67-35-35s15.67-35 35-35c4.4 0 8.62.81 12.5 2.3-13.16 5.03-22.5 17.78-22.5 32.7s9.34 27.67 22.5 32.7z" fill="#537983"/><circle cx="251.847" cy="253.303" fill="#fff0ad" r="21.957"/><circle cx="320.962" cy="253.303" fill="#eb5569" r="21.957"/><path d="m313.282 391.756h-156.953c-4.418 0-8-3.582-8-8v-66.723c0-4.418 3.582-8 8-8h156.953c4.418 0 8 3.582 8 8v66.723c0 4.418-3.582 8-8 8z" fill="#678d98"/><path d="m181.33 391.757h-25c-4.42 0-8-3.58-8-8v-66.72c0-4.42 3.58-8 8-8h25c-4.42 0-8 3.58-8 8v66.72c0 4.42 3.58 8 8 8z" fill="#537983"/></g><g><path d="m157.306 88.593c-23.435 0-42.5 19.065-42.5 42.5s19.065 42.5 42.5 42.5 42.5-19.065 42.5-42.5-19.066-42.5-42.5-42.5zm0 70c-15.164 0-27.5-12.336-27.5-27.5s12.336-27.5 27.5-27.5 27.5 12.336 27.5 27.5-12.337 27.5-27.5 27.5z"/><path d="m312.306 173.593c23.435 0 42.5-19.065 42.5-42.5s-19.065-42.5-42.5-42.5-42.5 19.065-42.5 42.5 19.065 42.5 42.5 42.5zm0-70c15.164 0 27.5 12.336 27.5 27.5s-12.336 27.5-27.5 27.5-27.5-12.336-27.5-27.5 12.336-27.5 27.5-27.5z"/><path d="m251.847 282.76c16.243 0 29.458-13.214 29.458-29.458s-13.214-29.458-29.458-29.458-29.458 13.214-29.458 29.458 13.215 29.458 29.458 29.458zm0-43.915c7.972 0 14.458 6.486 14.458 14.458s-6.486 14.458-14.458 14.458-14.458-6.486-14.458-14.458 6.486-14.458 14.458-14.458z"/><path d="m320.962 223.845c-16.243 0-29.458 13.214-29.458 29.458s13.214 29.458 29.458 29.458 29.458-13.214 29.458-29.458-13.215-29.458-29.458-29.458zm0 43.915c-7.972 0-14.458-6.486-14.458-14.458s6.486-14.458 14.458-14.458 14.458 6.486 14.458 14.458-6.486 14.458-14.458 14.458z"/><path d="m313.282 301.532h-156.952c-8.547 0-15.5 6.953-15.5 15.5v66.724c0 8.547 6.953 15.5 15.5 15.5h156.953c8.547 0 15.5-6.953 15.5-15.5v-66.724c-.001-8.547-6.954-15.5-15.501-15.5zm.5 82.224c0 .276-.224.5-.5.5h-156.952c-.276 0-.5-.224-.5-.5v-66.724c0-.276.224-.5.5-.5h156.953c.276 0 .5.224.5.5v66.724z"/><path d="m492.25 184.317h-27.66c-8.547 0-15.5 6.953-15.5 15.5v9.823l-51.785 17.75v-6.797c0-10.752-8.748-19.5-19.5-19.5h-17.339c22.236-15.346 36.839-40.998 36.839-70 0-46.869-38.131-85-85-85-34.444 0-64.156 20.601-77.495 50.123-13.338-29.524-43.059-50.123-77.505-50.123-46.869 0-85 38.131-85 85 0 29.005 14.611 54.654 36.852 70h-17.351c-10.752 0-19.5 8.748-19.5 19.5v45.415h-24.525l-29.455-21.663c-3.51-2.592-8.11-2.982-12.006-1.017-3.898 1.967-6.32 5.902-6.32 10.269v119.24c0 4.367 2.422 8.302 6.32 10.269 1.65.833 3.425 1.242 5.19 1.242 2.403 0 4.787-.76 6.803-2.25l29.468-21.672h24.524v45.416c0 10.752 8.748 19.5 19.5 19.5h12.955v20.814c0 8.547 6.953 15.5 15.5 15.5h33.03c4.142 0 7.5-3.358 7.5-7.5s-3.358-7.5-7.5-7.5h-33.03c-.276 0-.5-.224-.5-.5v-20.814h230.09v20.814c0 .276-.224.5-.5.5h-161.06c-4.142 0-7.5 3.358-7.5 7.5s3.358 7.5 7.5 7.5h161.06c8.547 0 15.5-6.953 15.5-15.5v-20.814h12.956c10.752 0 19.5-8.748 19.5-19.5v-6.798l51.785 17.75v9.822c0 8.547 6.953 15.5 15.5 15.5h27.66c8.547 0 15.5-6.953 15.5-15.5v-226.8c-.001-8.545-6.954-15.499-15.501-15.499zm-257.437-18.353c6.424 14.218 16.645 26.355 29.367 35.128h-58.712c12.712-8.773 22.926-20.916 29.345-35.128zm77.493-104.871c38.598 0 70 31.402 70 70s-31.402 70-70 70-70-31.402-70-70 31.402-70 70-70zm-225 70c0-38.598 31.402-70 70-70s70 31.402 70 70-31.402 70-70 70-70-31.402-70-70zm-72.306 234.824v-105.398l20.79 15.29v74.818zm35.79-20.49v-64.42h21.516v64.42zm331.516 60.416c0 2.481-2.019 4.5-4.5 4.5h-286c-2.481 0-4.5-2.019-4.5-4.5v-185.25c0-2.481 2.019-4.5 4.5-4.5h286c2.481 0 4.5 2.019 4.5 4.5zm110.444 20.774c0 .276-.224.5-.5.5h-27.66c-.276 0-.5-.224-.5-.5v-159.53c0-4.142-3.358-7.5-7.5-7.5s-7.5 3.358-7.5 7.5v133.851l-51.785-17.75v-139.942l51.785-17.75v6.591c0 4.142 3.358 7.5 7.5 7.5s7.5-3.358 7.5-7.5v-32.27c0-.276.224-.5.5-.5h27.66c.276 0 .5.224.5.5z"/></g></g></svg>